<?xml version="1.0" standalone="no"?>
<!DOCTYPE svg PUBLIC "-//W3C//DTD SVG 20010904//EN"
 "http://www.w3.org/TR/2001/REC-SVG-20010904/DTD/svg10.dtd">
<svg version="1.0" xmlns="http://www.w3.org/2000/svg"
 width="707.000000pt" height="794.000000pt" viewBox="0 0 707.000000 794.000000"
 preserveAspectRatio="xMidYMid meet">

<g transform="translate(0.000000,794.000000) scale(0.100000,-0.100000)"
fill="#000000" stroke="none">
<path d="M3700 7355 c-19 -7 -58 -14 -87 -14 -29 -1 -85 -5 -125 -11 -40 -5
-179 -14 -308 -19 -266 -11 -353 -29 -485 -100 -38 -21 -124 -67 -191 -103
-151 -81 -206 -119 -235 -161 -12 -17 -43 -54 -68 -81 -29 -30 -41 -50 -33
-53 19 -7 14 -39 -9 -55 -21 -13 -21 -15 -6 -44 16 -30 13 -74 -4 -74 -5 0 -9
-7 -9 -15 0 -8 -4 -15 -8 -15 -5 0 -16 -6 -27 -13 -16 -13 -15 -14 16 -10 26
3 30 2 19 -6 -8 -6 -26 -11 -40 -11 -17 0 -36 -14 -58 -40 -33 -39 -26 -53 12
-25 11 8 32 15 47 15 15 0 30 4 33 9 10 15 56 20 56 5 0 -15 -51 -43 -134 -74
-72 -27 -98 -50 -114 -96 -8 -22 -21 -54 -29 -73 -14 -32 -14 -37 2 -67 15
-28 16 -37 4 -71 -16 -46 -16 -240 1 -363 6 -47 15 -121 20 -165 10 -90 36
-209 52 -242 16 -33 4 -38 -31 -12 -38 28 -93 29 -123 2 -26 -22 -69 -117 -91
-198 -35 -130 -50 -453 -26 -595 6 -36 17 -108 24 -160 13 -88 16 -97 49 -127
44 -41 97 -43 171 -8 39 18 53 21 62 12 9 -9 12 -82 14 -257 1 -228 0 -254
-24 -371 -43 -211 -79 -339 -104 -375 -34 -51 -69 -140 -83 -212 -29 -144 8
-410 121 -872 63 -254 115 -492 180 -810 27 -135 58 -290 70 -345 33 -162 38
-185 59 -300 11 -60 31 -166 44 -235 14 -69 42 -214 62 -322 l38 -198 557 0
557 0 6 88 c19 270 32 354 100 647 62 268 95 544 106 885 10 281 25 570 37
670 7 67 -3 61 -22 -12 -8 -29 -30 -100 -50 -157 -56 -158 -78 -286 -70 -403
8 -125 -8 -161 -97 -219 -85 -54 -144 -71 -273 -76 -252 -10 -533 99 -910 353
-44 30 -93 65 -110 79 -27 23 -27 25 -5 14 14 -7 39 -23 56 -36 17 -12 35 -23
41 -23 5 0 19 -9 31 -21 13 -11 34 -22 47 -25 14 -2 35 -8 47 -12 27 -10 34
-9 71 6 25 11 28 16 24 52 -3 30 0 40 11 40 10 0 12 7 8 24 -6 24 15 43 35 30
5 -3 4 6 -3 21 -10 22 -9 28 10 40 11 9 22 25 25 38 3 21 4 21 15 -6 7 -16 19
-27 31 -27 26 0 42 -22 31 -40 -14 -22 -12 -34 4 -21 12 10 18 6 32 -18 10
-17 24 -31 31 -31 7 0 13 -4 13 -10 0 -5 7 -10 15 -10 8 0 15 -7 15 -15 0 -8
6 -15 13 -15 8 0 7 -4 -3 -10 -13 -8 -12 -10 3 -10 9 0 17 -4 17 -10 0 -5 7
-10 16 -10 9 0 24 -10 34 -23 l19 -22 11 32 c8 22 19 33 31 33 23 0 25 13 5
30 -11 9 -13 18 -5 37 12 31 2 74 -12 52 -7 -11 -9 -11 -9 2 0 9 10 20 23 23
21 7 21 7 2 16 -11 5 -15 9 -10 9 6 1 12 12 13 25 1 20 -4 25 -25 28 -15 2
-28 8 -30 15 -3 8 13 10 56 6 63 -6 76 3 41 25 -11 7 -20 16 -20 20 0 15 63 4
72 -12 5 -8 15 -13 24 -9 11 4 12 9 3 19 -15 18 36 99 72 114 14 6 33 25 44
43 10 18 27 42 37 54 11 12 17 26 13 32 -3 6 0 11 8 11 13 0 49 14 107 43 22
11 24 18 21 66 -2 50 -1 53 18 48 14 -3 22 1 26 14 4 10 10 19 14 19 5 0 20
11 35 25 15 13 35 29 46 35 11 6 17 16 14 25 -4 10 0 15 11 15 14 0 15 3 6 14
-9 11 -5 16 19 26 16 7 36 24 43 38 6 14 25 30 40 35 16 5 39 19 52 31 13 12
44 33 69 46 26 13 46 27 46 32 0 4 4 8 9 8 6 0 29 13 53 29 125 85 194 184 88
126 -25 -14 -53 -27 -62 -31 -10 -3 -18 -10 -18 -15 0 -5 -6 -9 -14 -9 -8 0
-16 -4 -18 -9 -1 -5 -40 -28 -86 -51 -86 -43 -86 -43 -187 -26 -16 2 -36 -1
-44 -7 -12 -10 -14 -9 -8 5 7 20 -27 45 -38 28 -9 -14 -28 -1 -22 14 5 13 -27
15 -39 3 -15 -15 -32 -7 -27 13 5 20 -6 25 -48 22 -9 -1 -19 7 -22 18 -4 17
-13 18 -80 14 -57 -3 -77 0 -87 11 -8 9 -22 12 -42 8 -23 -4 -29 -3 -24 6 5 8
-3 16 -23 24 -19 7 -34 22 -40 40 -6 16 -15 26 -20 23 -5 -3 -14 1 -21 9 -7 8
-17 15 -22 15 -6 0 -25 13 -44 29 -18 16 -40 34 -50 39 -14 8 -14 13 -4 33 17
33 16 32 39 20 13 -7 22 -8 26 -1 4 7 14 5 27 -5 15 -10 25 -11 34 -5 8 7 21
7 39 0 21 -8 33 -7 49 3 17 11 25 11 46 0 14 -7 45 -13 70 -14 25 0 56 -4 70
-8 15 -5 36 -3 53 6 15 8 36 13 45 12 36 -3 52 2 52 16 0 9 10 19 23 24 12 5
30 18 40 29 15 16 16 22 5 33 -7 8 -20 27 -28 42 -16 33 -66 57 -119 58 -20 0
-58 10 -86 23 l-50 23 32 16 c23 13 30 22 26 37 -5 18 -17 24 -50 23 -7 -1
-13 7 -13 16 0 12 -8 17 -22 17 -19 -1 -23 4 -23 29 0 17 5 36 12 42 18 20
120 9 154 -16 34 -25 39 -26 39 -5 0 14 14 16 109 12 60 -2 114 -8 122 -15 8
-6 41 -16 73 -23 67 -14 96 -28 96 -48 0 -10 6 -12 18 -7 9 4 33 9 53 12 32 5
39 1 67 -33 18 -21 32 -50 32 -64 0 -14 9 -33 20 -43 25 -21 25 -33 0 -40 -13
-3 -18 -10 -14 -21 10 -26 34 -18 50 17 8 17 19 39 24 47 5 8 30 58 56 110 44
90 46 98 41 160 -6 76 -15 120 -28 136 -5 6 -6 14 -2 17 3 4 1 7 -5 7 -7 0
-12 9 -12 20 0 11 -4 20 -10 20 -5 0 -9 3 -9 8 4 23 -4 44 -26 70 -13 16 -22
32 -18 36 4 3 -2 12 -12 20 -14 10 -22 10 -30 2 -12 -11 -7 -28 49 -183 19
-51 12 -81 -13 -60 -9 8 -24 17 -35 21 -15 5 -17 2 -13 -14 3 -12 0 -20 -7
-20 -23 0 -47 -40 -41 -70 7 -31 -15 -60 -45 -60 -10 0 -61 20 -114 44 -52 24
-105 47 -118 51 -13 4 -43 16 -68 28 -31 15 -74 23 -135 27 -65 4 -100 12
-125 26 -19 12 -61 30 -93 41 l-59 20 66 33 c36 19 66 37 66 42 0 4 5 8 11 8
6 0 9 -6 6 -13 -2 -7 6 -18 19 -24 21 -10 23 -8 26 16 5 42 33 33 32 -11 -1
-27 2 -35 13 -31 7 3 23 -3 34 -13 20 -18 21 -18 40 6 10 14 21 33 24 42 4 10
19 18 38 20 27 2 33 8 35 31 2 17 -3 36 -13 47 -15 16 -14 18 16 24 17 3 48 6
68 6 43 0 114 38 119 64 2 10 -10 33 -30 53 -31 33 -36 34 -86 31 -33 -3 -64
-13 -83 -27 -32 -24 -39 -22 -84 21 -16 16 -44 41 -62 56 -17 15 -52 65 -78
111 -38 71 -44 89 -39 120 7 39 52 112 109 176 21 23 35 50 35 65 0 14 4 30 9
36 5 5 11 50 13 99 3 55 11 102 21 120 28 53 65 139 72 167 4 14 16 36 28 49
15 16 22 39 25 81 4 55 3 58 -22 68 -14 5 -26 15 -26 23 0 7 -12 20 -27 29
-16 9 -39 27 -53 40 -13 13 -28 22 -32 20 -5 -1 -8 8 -9 20 -1 38 -8 80 -15
97 -9 21 -11 28 -13 49 -1 14 -3 15 -11 2 -8 -12 -13 -11 -39 8 -17 12 -40 22
-53 22 -13 0 -32 7 -42 15 -11 8 -40 15 -64 15 -29 0 -53 7 -69 20 -14 11 -36
20 -49 20 -14 0 -23 5 -22 12 2 7 -7 14 -19 16 -14 2 -20 8 -17 17 3 8 -4 16
-18 20 -38 12 -50 26 -37 41 9 11 7 14 -10 14 -30 0 -26 12 15 48 40 35 54 40
54 17 0 -23 22 -18 45 11 15 19 32 28 57 29 42 3 61 12 52 27 -5 7 2 9 19 4
14 -3 29 -2 32 4 3 5 0 10 -7 10 -7 0 -2 9 11 19 13 10 21 23 17 29 -3 5 1 13
10 16 11 4 13 10 6 19 -11 13 -6 29 22 70 15 22 17 30 7 37 -9 5 -10 10 -2 14
6 4 11 16 11 27 0 12 4 17 11 14 6 -4 13 2 15 12 5 18 64 62 64 48 0 -3 15 2
33 11 64 33 295 21 345 -18 6 -6 12 -7 12 -4 0 4 10 0 22 -8 12 -9 30 -16 40
-16 10 0 18 -5 18 -10 0 -7 6 -7 20 0 11 6 20 7 20 3 0 -4 21 -17 48 -27 26
-10 54 -25 63 -33 21 -18 72 -25 194 -28 58 -1 110 -7 124 -14 13 -7 34 -11
48 -8 48 9 83 -20 120 -99 18 -41 35 -74 37 -74 2 0 -5 28 -15 62 -23 72 -15
91 28 63 15 -10 38 -19 52 -21 26 -3 40 -9 126 -52 97 -49 100 -52 154 -173
12 -25 21 -57 21 -72 0 -19 5 -27 18 -28 13 0 12 -2 -5 -9 -20 -8 -21 -13 -13
-36 8 -19 8 -29 0 -34 -8 -5 -8 -20 -1 -51 14 -59 14 -58 -10 -52 -21 6 -21 4
-16 -78 4 -61 11 -96 29 -129 20 -39 23 -58 22 -150 -1 -110 -52 -463 -101
-708 -23 -114 -25 -135 -13 -142 21 -13 34 15 35 80 1 30 7 68 13 83 7 16 12
35 12 42 0 8 9 40 21 70 20 53 42 84 112 158 15 15 27 35 27 44 0 8 11 28 24
44 14 16 43 65 65 109 21 43 49 89 60 101 12 13 21 28 21 35 0 6 7 17 15 24 8
7 15 22 15 33 0 11 14 42 30 69 17 26 30 62 30 78 0 19 5 30 14 30 24 0 28 17
17 74 -5 29 -7 63 -4 75 l6 22 22 -21 c28 -26 39 -13 30 31 -5 24 -2 36 15 54
17 18 22 37 24 99 2 42 9 82 15 90 6 7 16 37 21 67 12 58 14 292 4 337 -26
120 -155 395 -231 496 -202 266 -358 390 -628 498 -55 22 -122 52 -150 66 -72
36 -202 79 -276 92 -105 18 -437 22 -479 5z m540 -150 c44 -6 45 -7 17 -15
-17 -5 -39 -5 -54 1 -13 5 -35 9 -48 9 -13 0 -27 5 -31 12 -5 8 6 9 42 3 27
-4 60 -9 74 -10z m127 -51 c-3 -3 -12 -4 -19 -1 -8 3 -5 6 6 6 11 1 17 -2 13
-5z m582 -313 c-12 -4 -99 41 -99 51 0 4 25 -5 55 -20 30 -15 50 -29 44 -31z
m36 -21 c3 -6 -1 -7 -9 -4 -18 7 -21 14 -7 14 6 0 13 -4 16 -10z m50 -30 c3
-5 2 -10 -4 -10 -5 0 -13 5 -16 10 -3 6 -2 10 4 10 5 0 13 -4 16 -10z m-134
-17 c13 -16 12 -17 -3 -4 -10 7 -18 15 -18 17 0 8 8 3 21 -13z m-400 -90 c13
-16 12 -17 -3 -4 -10 7 -18 15 -18 17 0 8 8 3 21 -13z m574 -63 c3 -6 -1 -7
-9 -4 -18 7 -21 14 -7 14 6 0 13 -4 16 -10z m-78 -66 c-3 -3 -12 -4 -19 -1 -8
3 -5 6 6 6 11 1 17 -2 13 -5z m229 -52 c-4 -3 -14 2 -24 12 -16 18 -16 18 6 6
13 -6 21 -14 18 -18z m-2120 -1187 c48 -24 134 -103 134 -124 0 -5 -32 8 -70
29 -84 46 -155 74 -232 90 -67 13 -75 27 -20 33 67 8 135 -2 188 -28z m-79
-90 c5 -16 -14 -38 -26 -31 -18 12 -13 48 6 44 9 -2 18 -7 20 -13z m137 -61
c36 -30 66 -59 66 -65 0 -12 -23 -12 -36 1 -7 7 -28 8 -55 4 l-43 -7 34 -12
c19 -7 60 -15 90 -19 49 -6 104 -25 74 -26 -16 0 -74 -61 -68 -72 3 -4 -1 -8
-9 -8 -18 0 -29 -38 -14 -47 6 -4 24 -6 39 -5 22 2 28 -2 28 -17 0 -11 -3 -21
-8 -23 -16 -7 -115 -164 -114 -180 0 -10 -3 -20 -7 -22 -4 -3 -27 -43 -51 -90
-23 -47 -64 -112 -91 -146 -27 -33 -49 -65 -49 -70 0 -6 -7 -13 -15 -16 -8 -4
-15 -12 -15 -18 0 -19 -130 -150 -167 -169 -17 -9 -38 -23 -46 -31 -8 -8 -21
-16 -29 -18 -23 -5 -85 71 -99 120 -6 23 -16 42 -21 42 -5 0 -6 5 -2 12 13 21
7 140 -7 149 -8 5 -12 27 -11 63 0 30 -3 58 -8 61 -6 4 -10 14 -10 23 0 13 2
14 9 3 12 -18 22 0 23 41 1 18 -6 36 -15 43 -10 7 -17 23 -17 35 0 13 -8 32
-17 42 -38 43 -55 146 -29 180 23 31 110 38 236 19 133 -20 154 -22 200 -23
25 0 52 2 60 5 8 3 46 11 83 17 37 7 73 18 80 25 7 6 18 10 25 7 6 -2 12 3 12
11 0 9 6 17 13 20 17 6 7 13 -31 20 -22 5 -31 3 -26 -4 3 -6 -3 -5 -15 3 -12
7 -21 16 -21 20 0 5 -11 8 -24 8 -28 0 -54 25 -34 33 7 2 0 4 -15 4 -18 0 -27
-4 -24 -12 4 -8 -3 -10 -20 -7 -13 2 -21 8 -16 11 4 4 25 20 46 35 35 26 46
41 61 89 9 28 32 20 100 -39z m-87 -140 c-3 -3 -12 -4 -19 -1 -8 3 -5 6 6 6
11 1 17 -2 13 -5z m-478 -1095 c-16 -10 -23 -4 -14 10 3 6 11 8 17 5 6 -4 5
-9 -3 -15z m-21 -136 c-3 -90 -14 -111 -35 -66 -19 40 -16 90 7 113 11 11 20
25 20 30 0 6 2 10 5 10 3 0 4 -39 3 -87z m810 -67 c-2 -12 -7 -21 -12 -21 -15
0 -29 31 -22 50 5 14 9 15 22 5 8 -8 14 -23 12 -34z m168 9 c58 -20 138 -68
133 -80 -2 -6 -8 -9 -14 -7 -5 2 -61 9 -123 17 -62 7 -116 15 -119 18 -3 3 -2
19 2 36 6 28 10 31 43 31 20 0 55 -7 78 -15z m504 -18 c0 -5 -4 -5 -10 -2 -5
3 -10 14 -10 23 0 15 2 15 10 2 5 -8 10 -19 10 -23z m20 -67 c0 -5 -7 -10 -16
-10 -8 0 -12 5 -9 10 3 6 10 10 16 10 5 0 9 -4 9 -10z m-13 -42 c-3 -8 -6 -5
-6 6 -1 11 2 17 5 13 3 -3 4 -12 1 -19z"/>
<path d="M2550 4710 c0 -5 5 -10 10 -10 6 0 10 5 10 10 0 6 -4 10 -10 10 -5 0
-10 -4 -10 -10z"/>
<path d="M4060 5433 c-14 -3 -34 -13 -46 -24 -11 -11 -23 -17 -26 -14 -6 6
-38 -56 -38 -73 0 -5 -9 -12 -20 -15 -11 -3 -20 -12 -20 -20 0 -8 -8 -18 -17
-21 -58 -22 -60 -26 -67 -115 -4 -47 -8 -95 -9 -106 -2 -16 3 -20 28 -17 47 3
62 -11 46 -45 -12 -26 -11 -30 20 -57 24 -21 33 -38 34 -60 0 -26 9 -37 60
-71 55 -38 183 -95 213 -95 24 0 11 20 -28 45 -22 14 -40 29 -40 34 0 5 25 8
56 6 69 -4 60 6 -33 34 -62 19 -78 29 -115 72 -45 52 -54 82 -26 87 12 2 18
-7 23 -38 6 -34 13 -44 43 -59 21 -10 56 -21 79 -25 38 -5 46 -3 78 25 19 17
35 36 35 43 0 7 6 21 14 31 13 18 16 17 55 -23 25 -25 41 -50 39 -60 -2 -12 7
-20 37 -29 22 -6 50 -14 63 -18 40 -13 25 19 -35 76 -32 30 -74 67 -94 82 -40
30 -158 77 -194 77 -13 0 -26 4 -30 9 -10 17 33 32 90 32 100 2 253 -93 270
-166 9 -35 32 -75 44 -75 11 0 2 40 -12 58 -8 10 -5 11 17 3 32 -13 34 -1 7
50 -22 40 -90 119 -103 119 -5 0 -24 10 -43 23 l-34 23 62 14 c85 18 130 20
117 5 -8 -9 -4 -14 15 -17 30 -6 39 1 23 19 -15 19 -1 30 20 15 9 -6 33 -19
52 -29 32 -16 33 -18 12 -21 -33 -5 -21 -26 16 -30 24 -2 32 1 32 12 0 9 -4
16 -9 16 -5 0 -12 9 -16 19 -5 17 -38 35 -58 32 -5 -1 -6 3 -2 8 6 10 -65 61
-84 61 -5 0 -7 8 -4 18 2 11 -5 26 -19 37 l-23 20 19 -22 c17 -20 17 -23 3
-23 -9 0 -26 13 -38 29 -12 16 -27 27 -35 24 -7 -2 -20 6 -28 20 -12 17 -24
23 -42 21 -14 -1 -40 6 -58 17 -17 11 -49 19 -73 19 -23 0 -44 4 -47 9 -9 14
-119 31 -156 24z m370 -103 c0 -5 -4 -10 -10 -10 -5 0 -10 5 -10 10 0 6 5 10
10 10 6 0 10 -4 10 -10z m-180 -356 c0 -31 -23 -28 -28 4 -2 15 2 22 12 22 11
0 16 -9 16 -26z m-285 -24 c8 -13 -15 -13 -35 0 -12 8 -11 10 7 10 12 0 25 -4
28 -10z"/>
<path d="M5033 4655 c-19 -19 -33 -41 -30 -49 3 -7 9 -34 12 -60 7 -43 25 -56
25 -18 0 9 14 44 30 77 16 33 30 66 30 73 0 23 -32 12 -67 -23z"/>
<path d="M4775 4285 c-3 -8 -7 -22 -10 -31 -3 -8 -1 -13 4 -10 5 3 11 17 13
31 6 27 0 34 -7 10z"/>
<path d="M3590 4010 c0 -5 5 -10 11 -10 5 0 7 5 4 10 -3 6 -8 10 -11 10 -2 0
-4 -4 -4 -10z"/>
<path d="M4630 3813 c0 -18 71 -63 97 -63 26 0 26 1 -12 19 -22 10 -46 25 -54
34 -14 18 -31 23 -31 10z"/>
<path d="M3300 3520 c0 -11 6 -23 13 -25 22 -7 107 -12 107 -6 0 8 -60 34 -80
36 -8 0 -21 4 -28 8 -8 6 -12 1 -12 -13z"/>
<path d="M3468 3483 c7 -3 16 -2 19 1 4 3 -2 6 -13 5 -11 0 -14 -3 -6 -6z"/>
<path d="M1246 3144 c-119 -23 -222 -63 -308 -120 -72 -46 -90 -54 -132 -54
-109 0 -687 -86 -788 -116 -17 -5 -18 -82 -18 -1430 l0 -1424 980 0 c541 0
980 4 980 9 0 4 -9 53 -20 107 -10 54 -44 230 -75 389 -31 160 -67 344 -80
410 -13 66 -40 208 -60 315 -20 107 -51 272 -70 365 -83 409 -143 798 -152
970 -13 258 43 477 132 525 41 22 29 36 -42 54 -82 20 -249 20 -347 0z"/>
<path d="M1751 3073 c-16 -18 -33 -249 -24 -320 4 -34 2 -44 -11 -49 -9 -3
-16 -11 -16 -16 0 -6 6 -8 14 -5 8 3 16 1 18 -5 3 -7 12 -9 22 -5 14 6 16 13
11 30 -4 12 -10 56 -12 97 -2 41 -4 80 -5 85 -2 20 13 176 18 190 8 19 3 18
-15 -2z"/>
<path d="M1678 3033 c-25 -46 -26 -55 -27 -200 -1 -86 2 -153 7 -153 23 0 30
35 34 173 2 98 7 150 15 155 7 5 9 19 5 40 l-7 32 -27 -47z"/>
<path d="M1584 2905 c-7 -19 -14 -60 -14 -92 l0 -58 24 25 c30 32 46 160 20
160 -8 0 -22 -16 -30 -35z"/>
<path d="M1571 2723 c-11 -21 -11 -123 1 -123 4 0 12 9 18 20 6 11 16 17 22
14 8 -5 9 0 4 17 -5 13 -10 39 -13 57 -6 36 -17 41 -32 15z"/>
<path d="M1665 2650 c-3 -5 1 -10 9 -10 8 0 18 5 21 10 3 6 -1 10 -9 10 -8 0
-18 -4 -21 -10z"/>
<path d="M3826 2514 c-10 -27 -6 -166 8 -239 15 -78 63 -323 101 -515 62 -311
67 -452 25 -695 -40 -235 -75 -382 -150 -635 -37 -127 -100 -393 -100 -426 0
-2 437 -4 972 -4 l971 0 -7 162 c-16 402 -46 668 -91 823 -19 65 -27 118 -29
192 -3 87 -7 111 -30 157 -44 89 -224 247 -476 416 -173 116 -259 162 -435
233 -88 36 -185 77 -216 90 -82 37 -236 165 -385 321 -71 75 -135 136 -141
136 -6 0 -14 -7 -17 -16z"/>
<path d="M1770 2050 c-8 -5 -12 -11 -9 -14 3 -3 14 1 25 9 21 16 8 20 -16 5z"/>
<path d="M1875 2019 c-11 -17 1 -21 15 -4 8 9 8 15 2 15 -6 0 -14 -5 -17 -11z"/>
<path d="M1708 1913 c6 -2 18 -2 25 0 6 3 1 5 -13 5 -14 0 -19 -2 -12 -5z"/>
</g>
</svg>
